<svg xmlns="http://www.w3.org/2000/svg" width="128" height="128"><rect width="124" height="124" x="2" y="2" fill="#363d52" stroke="#212532" stroke-width="4" rx="14"/><g transform="translate(12.322 12.322)scale(.101)"><path fill="#478cbf" d="m105 673 152 14q12 1 15 14l4 67 132 10 8-61q2-11 15-15h162q13 4 15 15l8 61 132-10 4-67q3-13 15-14l152-14V427q30-39 56-81-35-59-83-108-43 20-82 47-40-37-88-64 7-51 8-102-59-28-123-42-26 43-46 89-49-7-98 0-20-46-46-89-64 14-123 42 1 51 8 102-48 27-88 64-39-27-82-47-48 49-83 108 26 42 56 81zm0 33v39c0 276 813 276 814 0v-39l-134 12-5 69q-2 10-14 13l-162 11q-12 0-16-11l-10-65H446l-10 65q-4 11-16 11l-162-11q-12-3-14-13l-5-69z"/><path d="M483 600c0 34 58 34 58 0v-86c0-34-58-34-58 0z" fill="#6b3a1f"/><path d="M105 690 v16 q407 354 814 0 v-16 z" fill="#5c3a1f"/><path d="M105 660 l27 -16 l27 16 l27 -16 l27 16 l27 -16 l27 16 l27 -16 l27 16 l27 -16 l27 16 l27 -16 l27 16 l27 -16 l27 16 l27 -16 l27 16 l27 -16 l27 16 l27 -16 l27 16 l27 -16 l27 16 l27 -16 l27 16 l27 -16 l27 16 l27 -16 l27 16 l4 0 v30 q-407 354 -814 0 v-30 z" fill="#2d7d46"/><polygon points="180,660 186,635 192,660" fill="#3a9d5c"/><polygon points="195,660 202,628 209,660" fill="#3a9d5c"/><polygon points="250,660 256,636 262,660" fill="#3a9d5c"/><polygon points="345,660 352,630 359,660" fill="#3a9d5c"/><polygon points="420,660 426,634 432,660" fill="#3a9d5c"/><polygon points="505,660 512,625 519,660" fill="#3a9d5c"/><polygon points="560,660 566,635 572,660" fill="#3a9d5c"/><polygon points="650,660 656,632 662,660" fill="#3a9d5c"/><polygon points="730,660 736,636 742,660" fill="#3a9d5c"/><polygon points="795,660 802,628 809,660" fill="#3a9d5c"/><polygon points="850,660 856,634 862,660" fill="#3a9d5c"/></g><g transform="translate(12.322 12.322)scale(.101)"><polygon points="299,580 220,470 378,470" fill="#3a9d5c"/><polygon points="299,470 245,380 353,380" fill="#3a9d5c"/><polygon points="299,380 265,300 333,300" fill="#3a9d5c"/><rect x="289" y="580" width="20" height="35" fill="#6b3a1f"/><polygon points="725,580 646,470 804,470" fill="#3a9d5c"/><polygon points="725,470 671,380 779,380" fill="#3a9d5c"/><polygon points="725,380 691,300 759,300" fill="#3a9d5c"/><rect x="715" y="580" width="20" height="35" fill="#6b3a1f"/></g></svg>